<svg width="20" height="20" viewBox="0 0 20 20" fill="none" xmlns="http://www.w3.org/2000/svg">
<g id="Icon">
<path id="Vector" d="M3.95837 6.66675H6.04171" stroke="#374151" stroke-width="1.5" stroke-linecap="round" stroke-linejoin="round"/>
<path id="Vector_2" d="M10.625 6.66675H16.0417" stroke="#374151" stroke-width="1.5" stroke-linecap="round" stroke-linejoin="round"/>
<path id="Vector_3" d="M3.95837 13.3333H10.2084" stroke="#141414" stroke-width="1.5" stroke-linecap="round" stroke-linejoin="round"/>
<path id="Vector_4" d="M14.7916 13.3333H16.0416" stroke="#141414" stroke-width="1.5" stroke-linecap="round" stroke-linejoin="round"/>
<path id="Vector_5" d="M10.2084 6.66675C10.2084 7.70228 9.36891 8.54175 8.33337 8.54175C7.29784 8.54175 6.45837 7.70228 6.45837 6.66675C6.45837 5.63121 7.29784 4.79175 8.33337 4.79175C9.36891 4.79175 10.2084 5.63121 10.2084 6.66675Z" stroke="#141414" stroke-width="1.5" stroke-linecap="round" stroke-linejoin="round"/>
<path id="Vector_6" d="M14.375 13.3333C14.375 14.3688 13.5355 15.2083 12.5 15.2083C11.4645 15.2083 10.625 14.3688 10.625 13.3333C10.625 12.2977 11.4645 11.4583 12.5 11.4583C13.5355 11.4583 14.375 12.2977 14.375 13.3333Z" stroke="#141414" stroke-width="1.5" stroke-linecap="round" stroke-linejoin="round"/>
</g>
</svg>
